<svg viewBox="0 0 1800 950" xmlns="http://www.w3.org/2000/svg" font-family="Helvetica, Arial, sans-serif">
  <defs>
    <marker id="arrow" viewBox="0 0 10 10" refX="9" refY="5" markerWidth="7" markerHeight="7" orient="auto-start-reverse">
      <path d="M0,0 L10,5 L0,10 z" fill="#1a1a1a"/>
    </marker>
    <marker id="arrowFaded" viewBox="0 0 10 10" refX="9" refY="5" markerWidth="7" markerHeight="7" orient="auto-start-reverse">
      <path d="M0,0 L10,5 L0,10 z" fill="#aaaaaa"/>
    </marker>
  </defs>
  <rect x="0" y="0" width="1800" height="950" fill="#ffffff"/>
  <rect x="20" y="20" width="1760" height="910" rx="24" fill="none" stroke="#1a1a1a" stroke-width="1.5"/>
  <rect x="60" y="330" width="220" height="220" rx="18" fill="#ffffff" stroke="#1a1a1a" stroke-width="1.8"/>
  <g transform="translate(170,395)">
    <rect x="-45" y="-32" width="90" height="64" rx="6" fill="#2b2b2b"/>
    <path d="M-28,-6 L-10,0 L-28,6" fill="none" stroke="#ffffff" stroke-width="3" stroke-linecap="round" stroke-linejoin="round"/>
    <line x1="-4" y1="6" x2="20" y2="6" stroke="#ffffff" stroke-width="3" stroke-linecap="round"/>
  </g>
  <text x="170" y="480" text-anchor="middle" font-size="16" font-weight="700" fill="#1a1a1a">BROWSER / CURL</text>
  <text x="170" y="504" text-anchor="middle" font-size="12" fill="#555555">POST /tasks {x, y}</text>
  <text x="170" y="524" text-anchor="middle" font-size="12" fill="#555555">GET /result/&lt;task_id&gt;</text>
  <line x1="280" y1="440" x2="336" y2="440" stroke="#1a1a1a" stroke-width="1.8" stroke-dasharray="7,6" marker-end="url(#arrow)">
  <animate attributeName="stroke-dashoffset" values="14;0" dur="0.8s" repeatCount="indefinite"/>
</line>
  <text x="308" y="426" text-anchor="middle" font-size="11" fill="#444444">via LB</text>
  <rect x="340" y="100" width="1180" height="740" rx="20" fill="#ffffff" stroke="#1a1a1a" stroke-width="1.8"/>
  <rect x="640" y="72" width="580" height="48" rx="14" fill="#ffffff" stroke="#1a1a1a" stroke-width="1.8"/>
  <text x="930" y="102" text-anchor="middle" font-size="15" font-weight="700" fill="#1a1a1a">HOST (VM)</text>
  <rect x="420" y="180" width="230" height="220" rx="18" fill="#ffffff" stroke="#1a1a1a" stroke-width="1.6"/>
  <g transform="translate(535,240)">
    <path d="M-13,-24 L-13,-4 L-27,22 A6,6 0 0 0 -21,30 L21,30 A6,6 0 0 0 27,22 L13,-4 L13,-24 Z" fill="none" stroke="#1a1a1a" stroke-width="2.4" stroke-linejoin="round"/>
    <line x1="-16" y1="-24" x2="16" y2="-24" stroke="#1a1a1a" stroke-width="2.4" stroke-linecap="round"/>
  </g>
  <text x="535" y="308" text-anchor="middle" font-size="16" font-weight="700" fill="#1a1a1a">FLASK API</text>
  <text x="535" y="327" text-anchor="middle" font-size="11.5" fill="#666666">(app/api.py, :5000)</text>
  <text x="535" y="356" text-anchor="middle" font-size="12" fill="#444444">POST /tasks</text>
  <text x="535" y="376" text-anchor="middle" font-size="12" fill="#444444">add.delay(x, y)</text>
  <rect x="690" y="180" width="230" height="220" rx="18" fill="#ffffff" stroke="#1a1a1a" stroke-width="1.6"/>
  <g transform="translate(805,240)">
    <path d="M-26,-8 L0,-20 L26,-8 L0,4 Z" fill="#c6302b"/>
    <path d="M-26,4 L0,16 L26,4 L26,-8 L0,4 L-26,-8 Z" fill="#a41e11"/>
    <path d="M-26,-8 L-26,4 L0,16 L0,4 Z" fill="#d9433d"/>
  </g>
  <text x="805" y="308" text-anchor="middle" font-size="16" font-weight="700" fill="#1a1a1a">REDIS</text>
  <text x="805" y="327" text-anchor="middle" font-size="11.5" fill="#666666">(broker + result backend)</text>
  <text x="805" y="356" text-anchor="middle" font-size="12" fill="#444444">:6379 &#183; db 0 = broker</text>
  <text x="805" y="376" text-anchor="middle" font-size="12" fill="#444444">db 1 = result backend</text>
  <rect x="960" y="180" width="230" height="220" rx="18" fill="#ffffff" stroke="#1a1a1a" stroke-width="1.6"/>
  <g transform="translate(1075,238)" stroke="#4a90d9" stroke-width="2" fill="none">
    <circle cx="-14" cy="6" r="12"/>
    <circle cx="14" cy="6" r="12"/>
    <circle cx="0" cy="-14" r="12"/>
  </g>
  <text x="1075" y="293" text-anchor="middle" font-size="16" font-weight="700" fill="#1a1a1a">CELERY WORKER</text>
  <text x="1075" y="312" text-anchor="middle" font-size="11.5" fill="#666666">(worker.sh, concurrency=2)</text>
  <text x="1075" y="341" text-anchor="middle" font-size="12" fill="#444444">lab22.add(x, y)</text>
  <text x="1075" y="361" text-anchor="middle" font-size="12" fill="#444444">writes result &#8594; Redis db1</text>
  <rect x="1230" y="180" width="230" height="220" rx="18" fill="#ffffff" stroke="#1a1a1a" stroke-width="1.6"/>
  <g transform="translate(1345,236)">
    <circle cx="0" cy="0" r="16" fill="none" stroke="#15803d" stroke-width="2.4"/>
    <path d="M-8,0 L-2,7 L9,-8" fill="none" stroke="#15803d" stroke-width="2.6" stroke-linecap="round" stroke-linejoin="round"/>
  </g>
  <text x="1345" y="290" text-anchor="middle" font-size="16" font-weight="700" fill="#1a1a1a">RESULT</text>
  <text x="1345" y="309" text-anchor="middle" font-size="11.5" fill="#666666">(GET /result/&lt;id&gt;)</text>
  <text x="1345" y="338" text-anchor="middle" font-size="12" fill="#444444">state: SUCCESS</text>
  <text x="1345" y="358" text-anchor="middle" font-size="12" fill="#444444">value: 42</text>
  <line x1="650" y1="290" x2="686" y2="290" stroke="#1a1a1a" stroke-width="1.8" stroke-dasharray="6,5" marker-end="url(#arrow)">
  <animate attributeName="stroke-dashoffset" values="14;0" dur="0.8s" repeatCount="indefinite"/>
</line>
  <text x="668" y="276" text-anchor="middle" font-size="11" fill="#444444">publish</text>
  <line x1="920" y1="290" x2="956" y2="290" stroke="#1a1a1a" stroke-width="1.8" stroke-dasharray="6,5" marker-start="url(#arrow)" marker-end="url(#arrow)">
  <animate attributeName="stroke-dashoffset" values="14;0" dur="0.8s" repeatCount="indefinite"/>
</line>
  <text x="938" y="276" text-anchor="middle" font-size="10" fill="#444444">consume /</text>
  <text x="938" y="308" text-anchor="middle" font-size="10" fill="#444444">store</text>
  <line x1="1190" y1="290" x2="1226" y2="290" stroke="#1a1a1a" stroke-width="1.8" stroke-dasharray="6,5" marker-end="url(#arrow)">
  <animate attributeName="stroke-dashoffset" values="14;0" dur="0.8s" repeatCount="indefinite"/>
</line>
  <text x="1208" y="276" text-anchor="middle" font-size="11" fill="#444444">read</text>
  <line x1="805" y1="400" x2="805" y2="440" stroke="#aaaaaa" stroke-width="1.6" stroke-dasharray="4,4">
  <animate attributeName="stroke-dashoffset" values="8;0" dur="0.8s" repeatCount="indefinite"/>
</line>
  <text x="850" y="424" text-anchor="middle" font-size="10" fill="#999999">also on host</text>
  <rect x="690" y="440" width="230" height="140" rx="16" fill="#fafafa" stroke="#aaaaaa" stroke-width="1.4" stroke-dasharray="6,5"/>
  <g transform="translate(730,485)" opacity="0.55">
    <rect x="-18" y="-18" width="36" height="36" rx="7" fill="#e8710a"/>
    <rect x="-10" y="-11" width="8" height="22" fill="#ffffff"/>
    <rect x="3" y="-11" width="8" height="13" fill="#ffffff"/>
  </g>
  <text x="820" y="470" text-anchor="middle" font-size="13" font-weight="700" fill="#888888">RABBITMQ</text>
  <text x="820" y="488" text-anchor="middle" font-size="11" fill="#999999">docker run, :5672/:15672</text>
  <text x="820" y="510" text-anchor="middle" font-size="10.5" fill="#999999">started in Step 5, but</text>
  <text x="820" y="526" text-anchor="middle" font-size="10.5" fill="#999999">celery_app.py points at Redis</text>
  <text x="820" y="542" text-anchor="middle" font-size="10.5" fill="#999999">&#8212; not on this task's path</text>
  <rect x="880" y="630" width="220" height="180" rx="18" fill="#ffffff" stroke="#0e7490" stroke-width="1.8"/>
  <g transform="translate(920,675)">
    <circle cx="0" cy="0" r="17" fill="none" stroke="#0e7490" stroke-width="2.2"/>
    <text x="0" y="6" text-anchor="middle" font-size="16" font-weight="700" fill="#0e7490">S</text>
  </g>
  <text x="1000" y="672" text-anchor="middle" font-size="14" font-weight="700" fill="#1a1a1a">supervisord</text>
  <text x="1000" y="690" text-anchor="middle" font-size="11" fill="#666666">Option A &#183; Step 8&#8211;13</text>
  <text x="990" y="716" text-anchor="middle" font-size="11" fill="#444444">autostart / autorestart</text>
  <text x="990" y="734" text-anchor="middle" font-size="11" fill="#444444">/etc/supervisor/conf.d/</text>
  <text x="990" y="752" text-anchor="middle" font-size="11" fill="#444444">lab22-celery.conf</text>
  <text x="990" y="774" text-anchor="middle" font-size="10.5" fill="#888888">logs: /var/log/supervisor/</text>
  <text x="990" y="790" text-anchor="middle" font-size="10.5" fill="#888888">lab22-celery.*.log</text>
  <rect x="1120" y="630" width="220" height="180" rx="18" fill="#ffffff" stroke="#7c3aed" stroke-width="1.8"/>
  <g transform="translate(1160,675)" stroke="#7c3aed" stroke-width="2.2" fill="none">
    <circle cx="0" cy="0" r="17"/>
    <line x1="0" y1="-17" x2="0" y2="-23"/>
    <line x1="0" y1="17" x2="0" y2="23"/>
    <line x1="-17" y1="0" x2="-23" y2="0"/>
    <line x1="17" y1="0" x2="23" y2="0"/>
  </g>
  <text x="1240" y="672" text-anchor="middle" font-size="14" font-weight="700" fill="#1a1a1a">systemd</text>
  <text x="1240" y="690" text-anchor="middle" font-size="11" fill="#666666">Option B &#183; Step 14&#8211;16</text>
  <text x="1230" y="716" text-anchor="middle" font-size="11" fill="#444444">Restart=always</text>
  <text x="1230" y="734" text-anchor="middle" font-size="11" fill="#444444">/etc/systemd/system/</text>
  <text x="1230" y="752" text-anchor="middle" font-size="11" fill="#444444">lab22-celery.service</text>
  <text x="1230" y="774" text-anchor="middle" font-size="10.5" fill="#888888">logs: /var/log/</text>
  <text x="1230" y="790" text-anchor="middle" font-size="10.5" fill="#888888">lab22-celery.*.log</text>
  <path d="M 990,630 L 990,415 L 1015,415 L 1015,404" fill="none" stroke="#0e7490" stroke-width="1.8" stroke-dasharray="6,5" marker-end="url(#arrow)">
  <animate attributeName="stroke-dashoffset" values="14;0" dur="0.8s" repeatCount="indefinite"/>
</path>
  <text x="970" y="510" text-anchor="middle" font-size="10.5" fill="#0e7490">auto-restart</text>
  <path d="M 1230,630 L 1230,430 L 1135,430 L 1135,404" fill="none" stroke="#7c3aed" stroke-width="1.8" stroke-dasharray="6,5" marker-end="url(#arrow)">
  <animate attributeName="stroke-dashoffset" values="14;0" dur="0.8s" repeatCount="indefinite"/>
</path>
  <text x="1230" y="510" text-anchor="middle" font-size="10.5" fill="#7c3aed">auto-restart</text>
  <rect x="1560" y="140" width="200" height="46" rx="12" fill="#ffffff" stroke="#1a1a1a" stroke-width="1.6"/>
  <text x="1660" y="169" text-anchor="middle" font-size="13" font-weight="700" fill="#1a1a1a">External Access</text>
  <path d="M 1460,290 L 1500,290 L 1500,163 L 1556,163" fill="none" stroke="#1a1a1a" stroke-width="1.8" stroke-dasharray="7,6" marker-end="url(#arrow)">
    <animate attributeName="stroke-dashoffset" values="14;0" dur="0.8s" repeatCount="indefinite"/>
  </path>
  <rect x="1560" y="206" width="200" height="100" rx="14" fill="#ffffff" stroke="#1a1a1a" stroke-width="1.4"/>
  <text x="1660" y="230" text-anchor="middle" font-size="13" font-weight="700" fill="#1a1a1a">EXPOSED PORT</text>
  <text x="1660" y="254" text-anchor="middle" font-size="12" fill="#444444">5000 &#8594; Flask API</text>
  <text x="1660" y="274" text-anchor="middle" font-size="11" fill="#888888">via *.lb.poridhi.io</text>
  <text x="1660" y="292" text-anchor="middle" font-size="11" fill="#888888">(Load Balancer modal)</text>
  <rect x="1560" y="322" width="200" height="120" rx="14" fill="#ffffff" stroke="#1a1a1a" stroke-width="1.4"/>
  <text x="1660" y="346" text-anchor="middle" font-size="13" font-weight="700" fill="#1a1a1a">TASK RESULT</text>
  <text x="1660" y="370" text-anchor="middle" font-size="12" fill="#444444">task_id: abcd-1234</text>
  <text x="1660" y="390" text-anchor="middle" font-size="12" fill="#15803d" font-weight="600">state: SUCCESS</text>
  <text x="1660" y="410" text-anchor="middle" font-size="12" fill="#444444">value: 42</text>
  <text x="1660" y="430" text-anchor="middle" font-size="10.5" fill="#888888">x=2, y=40</text>
  <rect x="1560" y="458" width="200" height="180" rx="14" fill="#ffffff" stroke="#1a1a1a" stroke-width="1.4"/>
  <g transform="translate(1580,485)">
    <circle cx="0" cy="0" r="9" fill="none" stroke="#333333" stroke-width="2"/>
    <path d="M-6,0 L-1.5,5 L6,-5.5" fill="none" stroke="#15803d" stroke-width="2" stroke-linecap="round" stroke-linejoin="round"/>
  </g>
  <text x="1668" y="480" text-anchor="middle" font-size="13" font-weight="700" fill="#1a1a1a">SUPERVISION PROOF</text>
  <text x="1660" y="506" text-anchor="middle" font-size="11.5" fill="#444444">kill -9 &lt;pid&gt;</text>
  <text x="1660" y="526" text-anchor="middle" font-size="11.5" fill="#444444">supervisorctl status:</text>
  <text x="1660" y="544" text-anchor="middle" font-size="11.5" fill="#15803d" font-weight="600">RUNNING, new pid</text>
  <text x="1660" y="568" text-anchor="middle" font-size="11.5" fill="#444444">systemctl status:</text>
  <text x="1660" y="586" text-anchor="middle" font-size="11.5" fill="#15803d" font-weight="600">active (running)</text>
  <text x="1660" y="610" text-anchor="middle" font-size="10.5" fill="#888888">worker back within seconds</text>
</svg>
